<svg width="336" height="85" viewBox="0 0 336 85" fill="none" xmlns="http://www.w3.org/2000/svg">
<path fill-rule="evenodd" clip-rule="evenodd" d="M168.024 0H179.286V31.2477C179.286 33.8611 181.465 36.0402 184.078 36.0402C186.692 36.0402 188.871 33.8621 188.871 31.2477V0H200.133C200.133 18.3039 200.133 36.6075 200.133 54.9122C200.133 63.7407 192.909 70.9661 184.078 70.9661C175.248 70.9661 168.024 63.7421 168.024 54.9122V49.1001H179.286V54.9122C179.286 57.5261 181.465 59.7038 184.078 59.7038C186.692 59.7038 188.871 57.5261 188.871 54.9122V46.5665C187.355 47.0441 185.746 47.3022 184.078 47.3022C175.248 47.3022 168.024 40.0776 168.024 31.2477V0Z" fill="#41739D"/>
<path fill-rule="evenodd" clip-rule="evenodd" d="M201.988 75.7748H166.169V84.3758H201.988V75.7748Z" fill="#41739D"/>
<path fill-rule="evenodd" clip-rule="evenodd" d="M335.685 75.7748H210.726V84.3758H335.685V75.7748Z" fill="#9C9E9D"/>
<path fill-rule="evenodd" clip-rule="evenodd" d="M143.741 75.7748H0V84.3758H143.741V75.7748Z" fill="#9C9E9D"/>
<path fill-rule="evenodd" clip-rule="evenodd" d="M35.4832 70.9667H19.8703V36.9026H15.6123V70.9667H0V0H15.6123V28.2851H19.8703V0H35.4832V70.9667ZM80.8851 70.9667H65.3739L62.7548 51.9063H55.8611L53.2083 70.9667H37.6964L49.3215 0H69.2431L80.8851 70.9667ZM61.5047 42.0728L59.2742 20.8839L57.145 42.0728H61.5047ZM143.741 70.9667H83.4197V0H98.6267V59.8145H105.926V0H121.133V59.8145H128.534V0H143.741V70.9667ZM225.933 44.8098V70.9667H210.726V0H227.116C233.604 0 238.439 0.824882 241.58 2.46605C244.741 4.11875 246.311 7.48578 246.311 12.5704V32.239C246.311 36.9012 245.025 40.1793 242.458 42.1066C239.872 44.0477 234.382 44.9448 225.933 44.8098ZM231.104 30.9207V13.8886C231.104 11.3884 229.38 10.138 225.933 10.138V34.6717C229.38 34.6717 231.104 33.4212 231.104 30.9207ZM292.193 70.9667H276.682L274.063 51.9063H267.169L264.516 70.9667H249.005L260.629 0H280.551L292.193 70.9667ZM272.813 42.0728L270.582 20.8839L268.453 42.0728H272.813ZM335.685 70.9667H320.478V9.22479H315.105V62.6703C315.105 68.7352 311.185 71.7772 303.328 71.7772C299.898 71.7772 296.823 71.5068 294.119 70.9832V60.9968C295.183 61.4191 296.383 61.6392 297.735 61.6392C298.884 61.6392 299.638 61.3645 299.982 60.8452C300.331 60.3177 300.506 59.0205 300.506 56.9416V0H335.685V70.9667Z" fill="#434343"/>
</svg>
